<?xml version="1.0" encoding="UTF-8" standalone="no"?>
<svg
   viewBox="0 0 64 64"
   width="128px"
   height="128px"
   version="1.1"
   id="svg62"
   sodipodi:docname="icons8-webpack.svg"
   inkscape:version="1.2.2 (b0a8486541, 2022-12-01, custom)"
   xmlns:inkscape="http://www.inkscape.org/namespaces/inkscape"
   xmlns:sodipodi="http://sodipodi.sourceforge.net/DTD/sodipodi-0.dtd"
   xmlns="http://www.w3.org/2000/svg"
   xmlns:svg="http://www.w3.org/2000/svg">
  <defs
     id="defs66" />
  <sodipodi:namedview
     id="namedview64"
     pagecolor="#505050"
     bordercolor="#ffffff"
     borderopacity="1"
     inkscape:showpageshadow="0"
     inkscape:pageopacity="0"
     inkscape:pagecheckerboard="1"
     inkscape:deskcolor="#505050"
     showgrid="false"
     inkscape:zoom="6.15625"
     inkscape:cx="63.51269"
     inkscape:cy="53.685279"
     inkscape:window-width="1920"
     inkscape:window-height="1016"
     inkscape:window-x="0"
     inkscape:window-y="0"
     inkscape:window-maximized="1"
     inkscape:current-layer="svg62" />
  <polygon
     fill="#ace3ff"
     points="32,31 7,17 32,3 58,17 "
     id="polygon18"
     transform="matrix(0.86180869,0,0,0.81407312,4.5167785,11.76479)" />
  <polygon
     fill="#ace3ff"
     points="32,31 6,17 6,47 32,62 "
     id="polygon20"
     transform="matrix(0.86180869,0,0,0.81407312,4.5167785,11.76479)" />
  <polygon
     fill="#7bbeeb"
     points="32,31 17,23 32,15 47,23 "
     id="polygon22"
     transform="matrix(0.86180869,0,0,0.81407312,4.5167785,11.76479)" />
  <polygon
     fill="#ace3ff"
     points="32,31 32,62 59,47 59,17 "
     id="polygon24"
     transform="matrix(0.86180869,0,0,0.81407312,4.5167785,11.76479)" />
  <polygon
     fill="#7bbeeb"
     points="32,31 17,23 17,41 32,49 "
     id="polygon26"
     transform="matrix(0.86180869,0,0,0.81407312,4.5167785,11.76479)" />
  <polygon
     fill="#7bbeeb"
     points="32,31 32,49 47,41 47,23 "
     id="polygon28"
     transform="matrix(0.86180869,0,0,0.81407312,4.5167785,11.76479)" />
  <polygon
     fill="#e3f2ff"
     points="17,23 17,41 6,47 6,17 "
     id="polygon30"
     transform="matrix(0.86180869,0,0,0.81407312,4.5167785,11.76479)" />
  <path
     fill="#8d6c9f"
     d="m 32.094657,37.815129 c -0.139613,0 -0.279226,-0.03175 -0.405912,-0.09525 l -12.92713,-6.512581 c -0.280088,-0.141649 -0.455897,-0.418434 -0.455897,-0.718827 0,-0.300393 0.175809,-0.577178 0.455897,-0.718826 l 12.92713,-6.512585 c 0.253372,-0.126996 0.55759,-0.126996 0.810962,0 l 12.92713,6.512585 c 0.28095,0.141648 0.456759,0.418433 0.456759,0.718826 0,0.300393 -0.175809,0.577178 -0.455897,0.718827 l -12.92713,6.512585 c -0.126686,0.0635 -0.266299,0.09525 -0.405912,0.09525 z M 20.99887,30.488471 32.094657,36.077897 43.190444,30.488471 32.094657,24.899045 Z"
     id="path32"
     style="stroke-width:0.837601" />
  <path
     fill="#8d6c9f"
     d="m 19.167526,33.744764 c -0.475718,0 -0.861808,-0.363891 -0.861808,-0.814073 v -1.95866 L 9.2748242,26.318789 C 8.9973218,26.175512 8.8249601,25.900355 8.8258219,25.60159 8.8266837,25.30364 9.0007691,25.029297 9.2791333,24.886834 L 31.686159,13.489811 c 0.419701,-0.213288 0.941957,-0.06513 1.166889,0.331327 0.225794,0.394826 0.06894,0.888968 -0.349894,1.102255 l -21.006587,10.685524 8.083766,4.164798 c 0.27664,0.142463 0.449002,0.416806 0.449002,0.714756 v 2.44222 c 0,0.450182 -0.38609,0.814073 -0.861809,0.814073 z"
     id="path34"
     style="stroke-width:0.837601" />
  <path
     fill="#8d6c9f"
     d="m 19.167526,40.257349 c -0.475718,0 -0.861808,-0.363891 -0.861808,-0.814073 v -3.256293 c 0,-0.450182 0.38609,-0.814073 0.861808,-0.814073 0.475719,0 0.861809,0.363891 0.861809,0.814073 v 3.256293 c 0,0.450182 -0.38609,0.814073 -0.861809,0.814073 z"
     id="path36"
     style="stroke-width:0.837601" />
  <path
     fill="#8d6c9f"
     d="m 32.094657,52.468445 c -0.139613,0 -0.278364,-0.03175 -0.405912,-0.09525 L 18.761615,45.860614 C 18.481527,45.718965 18.305718,45.44218 18.305718,45.141787 v -2.442219 c 0,-0.450182 0.38609,-0.814073 0.861808,-0.814073 0.475719,0 0.861809,0.363891 0.861809,0.814073 v 1.953776 l 11.203513,5.643968 V 37.001056 c 0,-0.450182 0.38609,-0.814073 0.861809,-0.814073 0.475718,0 0.861809,0.363891 0.861809,0.814073 v 14.653316 c 0,0.286554 -0.158573,0.551128 -0.417978,0.697661 -0.137027,0.07734 -0.290429,0.116412 -0.443831,0.116412 z"
     id="path38"
     style="stroke-width:0.837601" />
  <polygon
     fill="#85cbf8"
     points="47,41 59,47 32,61 32,49 "
     id="polygon40"
     transform="matrix(0.86180869,0,0,0.81407312,4.5167785,11.76479)" />
  <path
     fill="#8d6c9f"
     d="m 32.094657,63.051396 c -0.150817,0 -0.302495,-0.03745 -0.436937,-0.112342 -0.263714,-0.145719 -0.424872,-0.413549 -0.424872,-0.701731 V 51.654372 c 0,-0.450182 0.38609,-0.814073 0.861809,-0.814073 0.475718,0 0.861809,0.363891 0.861809,0.814073 v 9.199841 L 54.944652,49.314726 c 0.417116,-0.2198 0.941096,-0.07652 1.17206,0.316675 0.231827,0.392383 0.08101,0.888153 -0.334381,1.106325 L 32.513496,62.948823 c -0.130995,0.06838 -0.274917,0.102573 -0.418839,0.102573 z"
     id="path42"
     style="stroke-width:0.837601" />
  <path
     fill="#8d6c9f"
     d="m 45.021787,45.955861 c -0.475718,0 -0.861808,-0.363891 -0.861808,-0.814074 V 30.488471 c 0,-0.308533 0.184427,-0.590203 0.47658,-0.728595 L 53.464927,25.590193 32.956466,15.546159 v 8.429727 c 0,0.450183 -0.386091,0.814074 -0.861809,0.814074 -0.475719,0 -0.861809,-0.363891 -0.861809,-0.814074 v -9.768877 c 0,-0.284926 0.156849,-0.547871 0.413668,-0.695218 0.256819,-0.148162 0.577412,-0.157931 0.844573,-0.02687 l 23.268835,11.397024 c 0.287844,0.140834 0.4671,0.422504 0.465376,0.729409 -0.0026,0.306092 -0.18615,0.585319 -0.47658,0.722083 l -9.865124,4.658127 v 14.150218 c 0,0.450183 -0.38609,0.814074 -0.861809,0.814074 z"
     id="path44"
     style="stroke-width:0.837601" />
  <path
     fill="#8d6c9f"
     d="m 42.556153,48.121295 c -0.307666,0 -0.605852,-0.156302 -0.760978,-0.430645 l -0.810962,-1.436839 c -0.224932,-0.396453 -0.0655,-0.889782 0.354204,-1.101441 0.422286,-0.212473 0.941957,-0.06106 1.166027,0.334584 l 0.810962,1.436839 c 0.224932,0.396454 0.0655,0.889782 -0.354203,1.101441 -0.130133,0.06513 -0.268885,0.09606 -0.40505,0.09606 z"
     id="path46"
     style="stroke-width:0.837601" />
  <path
     fill="#8d6c9f"
     d="m 38.964996,49.93098 c -0.307666,0 -0.605852,-0.156302 -0.761839,-0.430645 l -0.810962,-1.437653 c -0.22407,-0.396454 -0.06464,-0.890596 0.355065,-1.102255 0.421424,-0.210845 0.941957,-0.06024 1.166889,0.335398 l 0.810962,1.437653 c 0.22407,0.396454 0.06464,0.890596 -0.355065,1.102255 -0.130133,0.06431 -0.268885,0.09525 -0.40505,0.09525 z"
     id="path48"
     style="stroke-width:0.837601" />
  <path
     fill="#8d6c9f"
     d="m 35.373839,51.739036 c -0.307666,0 -0.605852,-0.156302 -0.760977,-0.430645 l -0.811824,-1.436839 c -0.22407,-0.396453 -0.0655,-0.889782 0.355065,-1.101441 0.422286,-0.212473 0.942819,-0.06106 1.166027,0.334584 l 0.810962,1.436839 c 0.224932,0.396454 0.0655,0.889782 -0.354203,1.101441 -0.130133,0.06513 -0.268884,0.09606 -0.40505,0.09606 z"
     id="path50"
     style="stroke-width:0.837601" />
  <path
     fill="#8d6c9f"
     d="m 55.363492,50.840299 c -0.131857,0 -0.263714,-0.02849 -0.385229,-0.08548 L 44.636559,45.870383 c -0.425734,-0.201076 -0.598096,-0.690334 -0.385229,-1.092486 0.212867,-0.401338 0.729952,-0.563339 1.156547,-0.363891 l 9.093806,4.29505 V 25.604033 c 0,-0.450183 0.38609,-0.814073 0.861809,-0.814073 0.475718,0 0.861808,0.36389 0.861808,0.814073 v 24.422193 c 0,0.282483 -0.155125,0.543801 -0.408497,0.692776 -0.138751,0.08059 -0.2956,0.121297 -0.453311,0.121297 z"
     id="path52"
     style="stroke-width:0.837601" />
  <g
     id="g56"
     transform="matrix(0.86180869,0,0,0.81407312,4.5167785,11.76479)">
    <path
       fill="#8d6c9f"
       d="M 6,48 C 5.823,48 5.646,47.953 5.49,47.86 5.186,47.68 5,47.353 5,47 V 17 c 0,-0.553 0.448,-1 1,-1 0.552,0 1,0.447 1,1 v 28.315 l 9.521,-5.193 c 0.487,-0.264 1.093,-0.085 1.357,0.399 0.265,0.484 0.086,1.092 -0.399,1.356 l -11,6 C 6.33,47.959 6.165,48 6,48 Z"
       id="path54" />
  </g>
  <g
     id="g60"
     transform="matrix(0.86180869,0,0,0.81407312,4.5167785,11.76479)">
    <path
       fill="#8d6c9f"
       d="M 31.999,63 C 31.83,63 31.658,62.957 31.5,62.866 l -26,-15 C 5.022,47.59 4.858,46.979 5.134,46.5 5.41,46.022 6.021,45.857 6.5,46.134 l 26,15 c 0.479,0.276 0.643,0.888 0.367,1.366 -0.186,0.32 -0.522,0.5 -0.868,0.5 z"
       id="path58" />
  </g>
  <text
     xml:space="preserve"
     style="font-size:9.33333px;fill:#000000;stroke-width:0.5"
     x="6.5755076"
     y="9.9111671"
     id="text280"><tspan
       sodipodi:role="line"
       id="tspan278"
       style="font-style:normal;font-variant:normal;font-weight:bold;font-stretch:normal;font-size:9.33333px;font-family:sans-serif;-inkscape-font-specification:'sans-serif Bold';stroke-width:0.5"
       x="6.5755076"
       y="9.9111671">WEBPACK</tspan></text>
</svg>
